<!-- Generator: Adobe Illustrator 21.0.2, SVG Export Plug-In  -->
<svg version="1.1"
	 xmlns="http://www.w3.org/2000/svg" xmlns:xlink="http://www.w3.org/1999/xlink" xmlns:a="http://ns.adobe.com/AdobeSVGViewerExtensions/3.0/"
	 x="0px" y="0px" width="159.608px" height="52.204px" viewBox="0 0 159.608 52.204"
	 style="enable-background:new 0 0 159.608 52.204;" xml:space="preserve">
<style type="text/css">
	.st0{fill:#FFFFFF;}
</style>
<defs>
</defs>
<g>
	<path class="st0" d="M105.418,1.058H94.887l-2.34,10.308h3.343c-0.613,1.895-0.947,2.508-1.839,3.399
		c-0.668,0.669-1.281,0.947-2.674,1.393l-1.337,5.461c4.68-0.836,7.856-2.396,10.085-4.904c1.56-1.838,2.73-4.457,3.566-8.135
		L105.418,1.058z M74.55,23.736c0,3.845-2.006,9.806-6.073,9.806c-2.285,0-3.566-1.838-3.566-4.791c0-5.349,2.674-9.863,5.795-9.863
		C72.99,18.888,74.55,20.894,74.55,23.736 M86.363,23.012c0-7.132-4.458-12.036-10.921-12.036c-2.006,0-4.235,0.557-5.684,1.393
		c-0.724,0.39-1.114,0.613-2.006,1.449l0.446-2.117H57.11l-8.971,39.17h11.534l2.898-12.76c1.727,2.062,3.956,3.009,7.187,3.009
		C78.952,41.12,86.363,33.041,86.363,23.012 M51.929,11.701H40.451l-6.519,28.695H45.41L51.929,11.701z M54.325,1.058H42.902
		l-1.783,7.634h11.479L54.325,1.058z M38.167,1.058H26.744l-9.026,39.338H29.14L38.167,1.058z M24.349,0.724
		C22.176,0.223,20.449,0,18.276,0c-4.681,0-7.801,1.281-9.417,3.9C7.8,5.627,7.188,7.466,6.519,10.865l-0.167,0.836H3.287
		l-1.281,5.962H5.07L0,40.396h11.366l5.127-22.733h3.343l1.337-5.962h-3.399l0.223-1.003c0.502-2.285,1.282-2.953,3.232-2.953
		c0.613,0,0.947,0.055,1.616,0.167L24.349,0.724z"/>
	<path class="st0" d="M118.236,42.482c0.109-1.789,0.163-3.76,0.163-5.913c0-0.483-0.048-0.979-0.145-1.487s-0.254-0.961-0.471-1.36
		c-0.218-0.399-0.514-0.726-0.889-0.98s-0.841-0.381-1.397-0.381c-0.943,0-1.91,0.611-2.902,1.832
		c-0.992,1.222-2.031,3.126-3.119,5.714c-0.073,0.193-0.109,0.375-0.109,0.544c0,0.362,0.12,0.683,0.363,0.961
		c0.241,0.278,0.567,0.417,0.979,0.417c0.266,0,0.52-0.072,0.762-0.217c0.241-0.146,0.423-0.351,0.544-0.617
		c0.87-2.104,1.59-3.579,2.158-4.426c0.568-0.846,0.949-1.293,1.143-1.342c0.121,0.097,0.218,0.399,0.29,0.907
		c0.073,0.508,0.096,1.064,0.073,1.669c-0.049,1.137-0.103,2.358-0.164,3.663c-0.06,1.306-0.115,2.534-0.163,3.682
		c-0.049,1.149-0.091,2.122-0.127,2.921c-0.036,0.798-0.054,1.233-0.054,1.305c0,0.702,0.169,1.264,0.508,1.687
		c0.338,0.423,0.858,0.635,1.559,0.635c0.484,0,0.98-0.188,1.488-0.562c0.508-0.375,1.016-1.07,1.523-2.086
		c0.411-0.846,0.901-1.801,1.47-2.866c0.567-1.064,1.142-2.104,1.723-3.119c0.58-1.016,1.13-1.941,1.65-2.776
		c0.52-0.834,0.949-1.469,1.288-1.904c0.435-0.556,0.816-0.931,1.143-1.125c0.326-0.193,0.622-0.29,0.888-0.29
		c0.29,0,0.544,0.14,0.762,0.417c0.218,0.279,0.327,0.732,0.327,1.361c0,0.29-0.013,0.713-0.037,1.269
		c-0.024,0.557-0.048,1.192-0.072,1.905c-0.025,0.713-0.061,1.457-0.109,2.231c-0.049,0.774-0.085,1.523-0.109,2.249
		c-0.024,0.725-0.049,1.391-0.072,1.995c-0.025,0.605-0.037,1.088-0.037,1.451c0,0.702,0.163,1.27,0.49,1.705
		c0.326,0.435,0.804,0.653,1.433,0.653c0.29,0,0.556-0.061,0.798-0.181c0.241-0.122,0.49-0.327,0.744-0.617
		c0.253-0.29,0.519-0.689,0.798-1.197c0.277-0.508,0.622-1.149,1.033-1.923c0.726-1.402,1.445-2.781,2.159-4.135
		c0.713-1.354,1.408-2.563,2.086-3.628c0.676-1.064,1.336-1.916,1.977-2.557c0.64-0.641,1.251-0.961,1.832-0.961
		c0.072,0,0.181,0.006,0.326,0.018s0.296,0.085,0.453,0.217c0.157,0.134,0.291,0.357,0.4,0.671c0.108,0.315,0.163,0.775,0.163,1.379
		c0,0.557-0.061,1.336-0.182,2.34c-0.121,1.003-0.181,2.098-0.181,3.283c0,0.895,0.073,1.753,0.218,2.575
		c0.145,0.823,0.417,1.548,0.816,2.177c0.399,0.629,0.931,1.13,1.596,1.505c0.665,0.375,1.529,0.562,2.594,0.562
		c0.991,0,1.934-0.235,2.829-0.707s1.729-1.076,2.503-1.814c0.774-0.737,1.481-1.541,2.122-2.412
		c0.641-0.871,1.203-1.699,1.687-2.485c0.484-0.786,0.871-1.487,1.161-2.104c0.29-0.617,0.483-1.021,0.58-1.215
		c0.073-0.169,0.109-0.339,0.109-0.508c0-0.338-0.127-0.659-0.381-0.961c-0.254-0.302-0.586-0.454-0.997-0.454
		c-0.267,0-0.508,0.073-0.726,0.218s-0.387,0.351-0.508,0.617c-0.194,0.435-0.448,0.961-0.762,1.578
		c-0.314,0.616-0.677,1.264-1.088,1.94c-0.411,0.678-0.865,1.355-1.36,2.032c-0.496,0.677-1.022,1.282-1.578,1.813
		c-0.557,0.533-1.137,0.962-1.741,1.288c-0.605,0.327-1.222,0.49-1.85,0.49c-0.581,0-1.04-0.121-1.379-0.363
		c-0.339-0.241-0.586-0.556-0.743-0.943c-0.158-0.386-0.261-0.834-0.309-1.342c-0.049-0.508-0.072-1.016-0.072-1.524
		c0-1.233,0.06-2.297,0.181-3.192c0.121-0.894,0.181-1.753,0.181-2.575c0-0.532-0.06-1.089-0.181-1.669
		c-0.121-0.581-0.333-1.107-0.635-1.578c-0.302-0.472-0.72-0.858-1.251-1.161c-0.533-0.302-1.21-0.453-2.032-0.453
		c-0.701,0-1.505,0.242-2.412,0.725c-0.907,0.484-1.881,1.439-2.92,2.866c-0.363,0.484-0.762,1.106-1.197,1.868
		c-0.436,0.762-0.889,1.578-1.361,2.449c-0.471,0.87-0.937,1.747-1.396,2.63c-0.46,0.883-0.871,1.686-1.234,2.412
		c0.024-0.677,0.055-1.402,0.091-2.177c0.036-0.773,0.073-1.523,0.109-2.249c0.036-0.725,0.073-1.402,0.109-2.031
		c0.036-0.629,0.054-1.137,0.054-1.524c0-0.676-0.072-1.311-0.217-1.904c-0.146-0.592-0.363-1.112-0.653-1.56
		c-0.291-0.447-0.66-0.804-1.107-1.07c-0.448-0.266-0.985-0.399-1.614-0.399s-1.318,0.181-2.068,0.544s-1.475,0.968-2.176,1.814
		c-0.412,0.508-0.913,1.246-1.506,2.213s-1.197,1.995-1.813,3.083c-0.617,1.088-1.21,2.171-1.778,3.247
		c-0.568,1.076-1.034,1.977-1.397,2.702C118.012,46.073,118.127,44.272,118.236,42.482 M93.496,43.389
		c-0.085-0.483-0.127-0.943-0.127-1.378c0-0.702,0.067-1.409,0.2-2.123c0.132-0.713,0.344-1.36,0.635-1.94
		c0.29-0.581,0.665-1.052,1.124-1.415s1.016-0.544,1.669-0.544c0.483,0,0.907,0.187,1.27,0.562c0.362,0.375,0.544,0.925,0.544,1.651
		c0,0.653-0.122,1.3-0.363,1.94c-0.242,0.641-0.581,1.252-1.016,1.832c-0.435,0.581-0.961,1.113-1.578,1.596
		c-0.616,0.484-1.3,0.883-2.049,1.197C93.683,44.332,93.581,43.873,93.496,43.389 M97.541,45.493
		c0.822-0.629,1.529-1.318,2.122-2.068c0.592-0.749,1.058-1.56,1.397-2.43c0.338-0.871,0.508-1.801,0.508-2.793
		c0-0.774-0.134-1.463-0.399-2.068c-0.267-0.604-0.617-1.118-1.052-1.542c-0.436-0.423-0.925-0.749-1.47-0.979
		c-0.544-0.23-1.094-0.345-1.65-0.345c-0.943,0-1.808,0.218-2.594,0.653c-0.786,0.435-1.463,1.04-2.031,1.814
		c-0.569,0.774-1.004,1.681-1.306,2.721c-0.303,1.04-0.454,2.176-0.454,3.409c0,1.234,0.182,2.467,0.545,3.701
		c0.362,1.233,0.918,2.339,1.668,3.319c0.75,0.979,1.705,1.777,2.866,2.394c1.161,0.617,2.539,0.925,4.135,0.925
		c2.491-0.049,4.722-1.004,6.693-2.866s3.791-4.631,5.46-8.307c0.048-0.096,0.084-0.187,0.108-0.272
		c0.024-0.084,0.037-0.187,0.037-0.308c0-0.339-0.127-0.653-0.381-0.943c-0.254-0.291-0.587-0.436-0.998-0.436
		c-0.266,0-0.508,0.067-0.725,0.2c-0.218,0.133-0.387,0.332-0.508,0.598c-0.508,1.137-1.076,2.274-1.705,3.41
		c-0.629,1.137-1.342,2.165-2.14,3.084c-0.798,0.919-1.681,1.663-2.648,2.231c-0.968,0.568-2.044,0.852-3.229,0.852
		c-1.161,0-2.14-0.211-2.938-0.635c-0.798-0.423-1.451-0.985-1.959-1.687C95.836,46.666,96.719,46.122,97.541,45.493"/>
</g>
</svg>