<!-- Generator: Adobe Illustrator 21.0.2, SVG Export Plug-In  -->
<svg version="1.1"
	 xmlns="http://www.w3.org/2000/svg" xmlns:xlink="http://www.w3.org/1999/xlink" xmlns:a="http://ns.adobe.com/AdobeSVGViewerExtensions/3.0/"
	 x="0px" y="0px" width="327.27px" height="337.081px" viewBox="0 0 327.27 337.081"
	 style="enable-background:new 0 0 327.27 337.081;" xml:space="preserve">
<style type="text/css">
	.st0{fill:#FFFFFF;}
	.st1{fill:url(#SVGID_1_);}
	.st2{fill:url(#SVGID_2_);}
</style>
<defs>
</defs>
<rect x="4.273" y="5.336" class="st0" width="318.833" height="325.822"/>
<linearGradient id="SVGID_1_" gradientUnits="userSpaceOnUse" x1="-99.9632" y1="2136.1584" x2="-98.8692" y2="2136.1584" gradientTransform="matrix(264.166 340.56 340.56 -264.166 -701062.25 598328.4375)">
	<stop  offset="0" style="stop-color:#E11074"/>
	<stop  offset="0.0492" style="stop-color:#E11074"/>
	<stop  offset="1" style="stop-color:#EED214"/>
</linearGradient>
<path class="st1" d="M16.003,4.003v4c-0.013-0.017-2.176,0.026-4.211,1.078c-2.014,1.181-3.65,2.338-3.789,6.922v305.075
	c-0.017,0.013,0.026,2.176,1.078,4.211c1.181,2.014,2.338,3.65,6.922,3.789h295.264c0.013,0.017,2.176-0.026,4.211-1.078
	c2.014-1.181,3.65-2.338,3.789-6.922V16.003c0.017-0.013-0.026-2.176-1.078-4.211c-1.181-2.014-2.338-3.65-6.922-3.789H16.003V4.003
	v-4h295.264c7.416-0.139,12.258,4.226,14.078,8.211c1.948,3.964,1.901,7.455,1.922,7.789v305.075
	c0.139,7.416-4.226,12.258-8.211,14.078c-3.964,1.948-7.455,1.901-7.789,1.922l-295.264,0c-7.416,0.139-12.258-4.226-14.078-8.211
	c-1.948-3.964-1.901-7.455-1.922-7.789V16.003C-0.135,8.587,4.229,3.745,8.214,1.925c3.964-1.948,7.455-1.901,7.789-1.922V4.003z"/>
</svg>