<!-- Generator: Adobe Illustrator 21.0.2, SVG Export Plug-In  -->
<svg version="1.1"
	 xmlns="http://www.w3.org/2000/svg" xmlns:xlink="http://www.w3.org/1999/xlink" xmlns:a="http://ns.adobe.com/AdobeSVGViewerExtensions/3.0/"
	 x="0px" y="0px" width="153.42px" height="139.761px" viewBox="0 0 153.42 139.761"
	 style="enable-background:new 0 0 153.42 139.761;" xml:space="preserve">
<style type="text/css">
	.st0{fill:#2980B9;}
	.st1{fill:#2ECC71;}
	.st2{fill:#82226A;}
	.st3{fill:#E11074;}
	.st4{fill:#EFD200;}
</style>
<defs>
</defs>
<path class="st0" d="M152.232,109.458c0-42.038-34.078-76.116-76.116-76.116S0,67.421,0,109.458c0,10.772,2.25,21.015,6.286,30.302
	h139.659C149.981,130.473,152.232,120.231,152.232,109.458z"/>
<g>
	<path class="st1" d="M128.819,64.703l-6.444,2.244c0,0-1.228,2.484,0.192,2.786c1.421,0.302,2.73,2.211,3.139,2.183
		c0.409-0.028,3.511-1.442,3.593-0.248c0.082,1.194,1.283,4.111-1.318,4.09c-2.601-0.021-2.172-1.85-5.649-0.41
		c-3.478,1.44-0.794,2.654-2.984,2.805c-2.189,0.151-5.696-1.407-5.572,0.384s3.404,2.965,3.061,3.788
		c-0.343,0.824-1.029,2.471-2.663,1.983s-3.665-0.947-5.456-0.823s-2.439-0.568-2.297,1.49c0.142,2.058,0.499,7.233,1.295,7.178
		c0.796-0.055,4.975-0.343,5.916-1.208c0.94-0.865,1.283-1.688,2.992-3.006s4.145-3.685,5.737-3.795
		c1.592-0.11,3.692,1.345,3.692,1.345s5.772,5.401,3.754,5.14s-4.641-0.611-3.978,0.309c0.663,0.92,4.354,5.146,4.166,2.419
		c-0.188-2.727,4.513-1.252,2.969-3.345c-1.544-2.093-5.161-5.243-3.967-5.325c1.194-0.082,3.835-4.264,3.901,0.531
		c0.066,4.795,2.804,6.805,2.804,6.805s1.702-4.317,2.525-3.974c0.824,0.343-1.034,5.303,1.978,5.479
		c3.012,0.176,5.697,1.423,5.97-0.412c0.273-1.835,1.749-13.409,1.749-13.409l-8.603-14.397L128.819,64.703z"/>
	<path class="st1" d="M153.42,109.458l-5.899-8.452c0,0-8.448,2.182-8.613-0.206c-0.165-2.388-0.529-4.763-2.718-4.612
		c-2.189,0.151-2.73,3.91-3.969,3.335c-1.24-0.576-7.057-3.741-7.079-4.056c-0.022-0.315-2.911-4.514-4.304-4.418
		c-1.393,0.096-4.023,2.559-5.769,3.338c-1.746,0.779-2.365,0.504-5.373,0.371c-3.009-0.133-6.843-0.636-6.844,2.247
		c-0.001,2.883-0.035,5.285-2.622,5.464c-2.587,0.178-5.6-0.014-5.291,1.565c0.309,1.578,5.113,1.647,3.404,2.965
		c-1.709,1.318-2.723,1.388-2.905,4.4c-0.183,3.012,6.207,11.57,8.197,11.432c1.99-0.137,7.618,0.274,10.349-0.714
		c2.731-0.988,9.113-0.829,8.777,2.794c-0.336,3.622-3.843,7.864-1.022,11.068c1.021,1.161,1.896,2.514,2.543,3.782h25.138
		L153.42,109.458z"/>
	<path class="st1" d="M84.104,135.376c3.383-0.233,5.627-5.387,2.642-5.181c-2.985,0.206-3.672-3.946-6.458-3.754
		c-2.786,0.192-10.485,1.635-10.668-1.008c-0.182-2.643,2.969-5.46,1.208-6.738s-6.18-1.573-6.784-4.531
		c-0.604-2.958,1.263-4.886-3.699-4.344c-4.962,0.542-6.586-4.145-9.566-3.139c-2.979,1.005-1.977,3.936-6.466,2.646
		c-4.488-1.29-2.8-5.806-5.586-5.613c-2.786,0.192-3.562-2.354-2.409-3.033s2.978-3.205-0.206-2.985s-5.724-1.805-5.504-4.419
		c0.22-2.615,12.703-4.276,13.636-2.341c0.933,1.935,1.181,5.518,2.491,4.227s1.765-9.204,6.51-9.989s8.554-0.648,8.334-3.832
		c-0.22-3.184,4.654-7.12,6.173-7.225c1.52-0.105,4.086-3.481,7.833-1.34c3.747,2.141,10.475,3.477,8.518,0.012
		c-1.957-3.464-3.948-9.126-7.53-8.879s-4.969-2.457-5.964-2.388c-0.995,0.069-3.06-2.988-3.709,0.256
		c-0.649,3.244-2.227,9.352-5.748,7.595c-3.521-1.757-9.69-1.331-8.132-4.838c1.558-3.507,6.142-6.623,8.173-6.163
		c2.031,0.46,3.294,1.372,3.294,1.372s7.919-6.945,9.958-3.486s-1.915,4.131-1.915,4.131s8.832,3.39,9.066,0.974
		s3.452-10.836-6.328-10.561c-9.779,0.275-9.374,3.246-10.582,3.13s-4.989,0.144-7.007-0.117c-2.018-0.261-0.535-1.963-3.987-2.724
		c-3.452-0.762-8.928,1.016-13.615-0.26c-4.687-1.276-28.644,7.975-28.644,7.975L8.819,75.981c0,0,1.73,7.679,2.924,7.597
		c1.194-0.082,2.217,0.247,2.409,3.033c0.192,2.786,0.947,7.933,1.757,8.077c0.81,0.144,2.985-0.206,1.585-3.109
		c-1.4-2.903-1.174-8.318-1.174-8.318s3.165-0.502,3.291,4.23c0.127,4.732,0.35,7.716,0.582,8.3
		c0.231,0.584,0.618,6.188,3.451,6.677s3.231,0.461,5.647,0.694c2.416,0.233,3.63,3.349,4.227,3.308s3.068,0.988,3.068,0.988
		s1.928,1.867,2.08,4.056c0.151,2.189,4.104,1.517,4.728,1.873c0.625,0.357,0.734,1.949,0.233,3.383s-3.761,3.459-4.316,4.097
		c-0.556,0.638-1.475,4.701-0.185,6.012c1.29,1.311,6.626,4.742,6.165,7.473c-0.449,2.659,1.742,4.47,3.023,5.407h32.721
		C81.672,137.418,82.609,135.479,84.104,135.376z"/>
	<path class="st1" d="M116.389,67.95c0,0-2.3-0.168-2.271,1.203s0.963,3.53,1.125,3.977c0.162,0.447,0.082,1.302-0.76,1.36
		c-0.842,0.058-2.175,1.589-1.125,1.647c1.05,0.058,4.522,2.042,4.453,0.085c-0.07-1.957,0.732-4.563-0.319-4.621
		C116.441,71.543,116.389,67.95,116.389,67.95z"/>
	<path class="st1" d="M111.88,71.793c-0.456,0.031-3.521,1.093-3.427,2.46c0.094,1.367,1.715,2.105,1.893,1.373
		c0.178-0.732,0.719-1.423,1.366-1.533c0.646-0.11,3.25-0.29,2.22-1.003C112.901,72.376,111.88,71.793,111.88,71.793z"/>
</g>
<g>
	<path class="st2" d="M135.959,137.607c0-9.713-0.648-33.673-4.533-35.292c0,0-2.914,15.865-6.476,15.865s-7.771-3.562-6.799-20.074
		c0.971-16.513-4.209-34.645-7.123-34.645c0,0,3.562,18.132-0.648,18.132s-8.418,1.943-8.095-9.066S113.942,32.702,77.355,0
		c0,0,16.837,47.92-5.18,56.338c0,0-3.562,0-3.885-7.123S61.813,33.997,57.28,33.997c0,0,6.152,14.57-5.504,26.874
		c-11.656,12.304-7.447,31.731-7.447,31.731S35.911,94.22,33.32,73.174c0,0-13.275,21.693-1.295,43.063c0,0,4.23,6.476-5.008,0.971
		c-9.238-5.504-5.029-20.722-5.029-20.722s-7.941,22.241-0.125,43.274h113.941C135.897,139.043,135.959,138.325,135.959,137.607z"/>
	<path class="st3" d="M107.466,110.086c0.324,11.98-14.57,10.037-14.57,10.037s3.562-30.112-1.295-30.759
		c-4.857-0.648-6.799-34.321-6.799-31.083c0,3.238-9.713,17.16-21.693,26.712c-11.98,9.552-9.39,30.921-11.656,35.454
		c-2.266,4.533-9.066-8.418-9.066-8.418c-3.822,0-1.428,19.446-0.235,27.732h61.403
		C107.724,129.672,107.466,110.086,107.466,110.086z"/>
	<path class="st3" d="M120.094,135.664c-0.251,1.458-1.003,2.837-2.071,4.096h2.276
		C120.305,137.263,120.094,135.664,120.094,135.664z"/>
	<path class="st4" d="M92.896,133.074c0.324,9.066-3.885,3.562-6.799,4.857c-2.914,1.295,3.238-21.37-3.562-18.456
		c-6.799,2.914-8.094-21.37-8.094-21.37c-16.362,8.335-12.713,37.548-14.582,41.655h34.889
		C93.945,133.391,92.749,128.956,92.896,133.074z"/>
	<path class="st4" d="M53.071,135.988c-0.538,1.076-0.484,2.364-0.086,3.773h3.648C54.748,138.494,53.071,135.988,53.071,135.988z"
		/>
</g>
</svg>